<svg width="381" height="25" id="Layer_1" data-name="Layer 1" xmlns="http://www.w3.org/2000/svg" viewBox="0 0 381.33 25.47"><defs><style>.cls-1{fill:#26262c;}.cls-2{fill:#acced9;}</style></defs><path class="cls-1" d="M216.6,13a15.5,15.5,0,0,0,.69,5.28,4.27,4.27,0,0,0,1.46,2.12,4.66,4.66,0,0,0,3.11.79,4,4,0,0,0,4-3,12.29,12.29,0,0,0,.6-3.36A19.78,19.78,0,0,0,226,9a5.47,5.47,0,0,0-1.21-2.4,4.31,4.31,0,0,0-3.34-1.21,4.48,4.48,0,0,0-2.63.73,4.74,4.74,0,0,0-1.77,2.81A17.22,17.22,0,0,0,216.6,13m5.59-9.1c.43.08.88.16,1.31.26a8.14,8.14,0,0,1,5.56,4.75,10.44,10.44,0,0,1,.25,8.13,8.21,8.21,0,0,1-15,1.32,10.43,10.43,0,0,1-.93-7.71,8.45,8.45,0,0,1,4.78-6A7.57,7.57,0,0,1,220.67,4,2.87,2.87,0,0,1,221,4h1.21Z" transform="translate(0 -0.62)"/><path class="cls-1" d="M169.2,13.33c0,.53,0,1.06,0,1.6a12,12,0,0,0,.61,3.38,4,4,0,0,0,2.07,2.5,5.69,5.69,0,0,0,2.6.43,3.94,3.94,0,0,0,3.69-2.55,10.25,10.25,0,0,0,.68-2.88A19.48,19.48,0,0,0,178.5,9a4.58,4.58,0,0,0-1.77-2.83,4.43,4.43,0,0,0-2.63-.71,4.74,4.74,0,0,0-2.78.74A4.65,4.65,0,0,0,169.58,9a16.33,16.33,0,0,0-.38,4.37m5.46-9.4a20.38,20.38,0,0,1,2.42.61,7.59,7.59,0,0,1,4,3.46,10.39,10.39,0,0,1,.73,9.1,8,8,0,0,1-6.16,5.38,8.06,8.06,0,0,1-8.74-4.07,10.27,10.27,0,0,1-1.27-5.58A10,10,0,0,1,167,8.05,8.13,8.13,0,0,1,173.19,4c.1,0,.23,0,.33,0Z" transform="translate(0 -0.62)"/><path class="cls-1" d="M273.66,12.75A14.12,14.12,0,0,0,273,8.31a4.35,4.35,0,0,0-1.42-2.08,4.67,4.67,0,0,0-2.93-.83,4.48,4.48,0,0,0-2.63.73A4.61,4.61,0,0,0,264.24,9a18.88,18.88,0,0,0-.41,5.71,11.61,11.61,0,0,0,.63,3.61A3.89,3.89,0,0,0,267.17,21a5.76,5.76,0,0,0,3,0,3.51,3.51,0,0,0,2.33-1.75,8.84,8.84,0,0,0,.73-1.79,16.8,16.8,0,0,0,.43-4.78m-4.24-8.82c.42.08.85.16,1.28.26a8.16,8.16,0,0,1,5.87,5.53,10.59,10.59,0,0,1,0,7.28,8.16,8.16,0,0,1-8.77,5.58,8,8,0,0,1-6.14-4.07,10.41,10.41,0,0,1-1.24-6.79,9.42,9.42,0,0,1,2.13-4.88A8.06,8.06,0,0,1,267.77,4c.1,0,.18,0,.26,0h1.39Z" transform="translate(0 -0.62)"/><path class="cls-1" d="M294.73,3.93l.86.16a6.47,6.47,0,0,1,2.81,1.33,1.55,1.55,0,0,0,.25.21,1,1,0,0,0,.43-.89c0-.45.23-.63.68-.65s.69.17.69.65v5.74c0,.48-.23.68-.69.71s-.68-.21-.7-.71a5.2,5.2,0,0,0-1-3.14,5.12,5.12,0,0,0-6.69-1.23A4.81,4.81,0,0,0,289.45,9a17.42,17.42,0,0,0-.45,5.71,12.23,12.23,0,0,0,.63,3.46,4.3,4.3,0,0,0,4.19,3.06,7.73,7.73,0,0,0,1.27-.07,2.93,2.93,0,0,0,2.25-1.7,7.53,7.53,0,0,0,.58-3.16h-1.24c-.25,0-.5,0-.76,0a.72.72,0,0,1-.76-.81.71.71,0,0,1,.84-.71c1.19.08,2.4.21,3.59.21s2.19-.13,3.31-.21a.78.78,0,1,1,.07,1.55h-1.92c0,.3-.05.65-.1,1a5.89,5.89,0,0,1-5,5.18,9.68,9.68,0,0,1-4.25-.1,7.77,7.77,0,0,1-4.85-3.71,10.39,10.39,0,0,1-.76-9.13,8.15,8.15,0,0,1,5.18-5.15c.53-.18,1.09-.25,1.65-.38a.85.85,0,0,1,.25,0l1.56,0Z" transform="translate(0 -0.62)"/><path class="cls-1" d="M49.58,15.58c-1-2.35-1.95-4.67-2.93-7.07l-3.09,7.07ZM37,21.62c.23-.68.36-.76,1.12-.71.42,0,.85,0,1.28.05.21,0,.31-.05.38-.25,1.44-3.33,2.91-6.69,4.37-10q1.36-3.15,2.73-6.27A1.52,1.52,0,0,1,47.28,4h.5a3.55,3.55,0,0,1,.43.61Q51.63,12.66,55,20.74a1.21,1.21,0,0,1,.07.2H57a.73.73,0,0,1,.78.68c.05.56-.27.94-.85.84a26.34,26.34,0,0,0-4.53-.18c-.76,0-1.49.1-2.22.18a.76.76,0,0,1-.78-1.09.7.7,0,0,1,.75-.46H51.8c-.25-.58-.5-1.18-.73-1.76s-.48-1.17-.73-1.75c-.08-.17-.16-.25-.33-.25h-6.9a.37.37,0,0,0-.28.15l-1.52,3.54v.07h1.32l.55,0a.74.74,0,0,1,.81.86.67.67,0,0,1-.86.68,18.63,18.63,0,0,0-4.29-.13,5.81,5.81,0,0,0-.71.11c-.71.12-.88,0-1.11-.66v-.13Z" transform="translate(0 -0.62)"/><path class="cls-1" d="M118.84,12.12h7.73V5.68h-1.19l-.7,0a.71.71,0,0,1-.81-.78.69.69,0,0,1,.83-.73,30.83,30.83,0,0,0,5.08.17c.86,0,1.69-.1,2.55-.17a.65.65,0,0,1,.74.3.91.91,0,0,1,0,.93.68.68,0,0,1-.71.28c-.79,0-1.57,0-2.35,0a.89.89,0,0,0-.28,0V20.91H132l.43,0a.79.79,0,0,1,.71,1.19.66.66,0,0,1-.76.35c-.91-.08-1.82-.18-2.73-.18-1.46,0-2.9.08-4.37.1-.23,0-.43.08-.63.08a.67.67,0,0,1-.76-.73.73.73,0,0,1,.73-.81c.54,0,1.09,0,1.62.05h.36V13.69h-7.76v7.2h1.89a.7.7,0,0,1,.64.28.85.85,0,0,1,.05.93.67.67,0,0,1-.76.33,35.69,35.69,0,0,0-6.37-.13c-.43,0-.86.11-1.29.13a.67.67,0,0,1-.81-.71.72.72,0,0,1,.79-.83c.78,0,1.56,0,2.35.05h.32V5.65h-.27c-.76,0-1.54,0-2.3,0-.31,0-.61,0-.76-.35a.9.9,0,0,1,0-.91.69.69,0,0,1,.73-.28c.91.08,1.8.18,2.71.18,1.46,0,2.93-.08,4.39-.1a2.67,2.67,0,0,0,.48-.08.71.71,0,0,1,.86.76.72.72,0,0,1-.81.78c-.5,0-1,0-1.54,0h-.35v6.47Z" transform="translate(0 -0.62)"/><path class="cls-1" d="M148.3,5.6v6.65a10.85,10.85,0,0,0,3.16-.26,2.51,2.51,0,0,0,1.92-1.94,7.49,7.49,0,0,0,.13-2,2.35,2.35,0,0,0-1.95-2.2,11.82,11.82,0,0,0-3.26-.25m-3.16,15.29V5.68H143.2l-.86,0a.69.69,0,0,1-.68-.78.68.68,0,0,1,.73-.73c2.75.38,5.51.07,8.26.15a8.46,8.46,0,0,1,4.4,1.19,3.46,3.46,0,0,1,1.74,3.26,3.64,3.64,0,0,1-1.39,2.55A6,6,0,0,1,153,12.65a.58.58,0,0,1-.2,0c.5.23,1,.41,1.52.68a4.7,4.7,0,0,1,2.52,4.35c0,.76-.07,1.49-.1,2.25a8.7,8.7,0,0,0,.05,1.14.7.7,0,0,0,.63.63.6.6,0,0,0,.74-.56c0-.15,0-.28,0-.43a.62.62,0,0,1,.7-.6.67.67,0,0,1,.64.75,2,2,0,0,1-1.65,1.82A3.05,3.05,0,0,1,154,20.56a11.71,11.71,0,0,1-.36-3,15,15,0,0,0-.15-1.89,2.17,2.17,0,0,0-2-2c-1.06-.15-2.15-.12-3.24-.2v7.43h2.15c.18,0,.35,0,.53,0a.76.76,0,0,1,.78.84.67.67,0,0,1-.8.71,41,41,0,0,0-6-.18c-.81,0-1.62.1-2.42.18-.33,0-.64,0-.79-.33a.87.87,0,0,1,.08-.94.7.7,0,0,1,.66-.28c.85,0,1.71,0,2.62,0" transform="translate(0 -0.62)"/><path class="cls-1" d="M78.26,5.7H76c-.53,0-.81-.22-.83-.68s.3-.93.91-.83a21.81,21.81,0,0,0,3.87.17c.7,0,1.44-.12,2.14-.17a.72.72,0,0,1,.86.78.71.71,0,0,1-.78.76c-.66,0-1.32,0-2-.05H79.8V21.42a4.86,4.86,0,0,1,0,.66.74.74,0,0,1-1.26.48,3.54,3.54,0,0,1-.53-.63L68.25,8a1.66,1.66,0,0,0-.2-.26V20.94h1.82c.15,0,.28,0,.43,0a.74.74,0,0,1,.83.84c0,.5-.33.78-.91.68a21.87,21.87,0,0,0-4-.18c-.66,0-1.34.1-2,.18a.76.76,0,0,1-.81-1,.71.71,0,0,1,.76-.5c.66,0,1.32,0,2,.05h.33V5.7H64.16a.74.74,0,0,1-.76-1.06c.13-.38.4-.48.86-.45,1.08.07,2.2.12,3.28.17a4.49,4.49,0,0,0,1,0,1.28,1.28,0,0,1,1.26.58c.56.78,1.11,1.54,1.65,2.32,2.14,3.09,4.32,6.19,6.46,9.28,0,.1.13.17.23.33V5.7Z" transform="translate(0 -0.62)"/><path class="cls-1" d="M332.39,20.91V5.68h-1.93l-.8,0a.7.7,0,0,1-.74-.78.69.69,0,0,1,.79-.73,97,97,0,0,0,10.51.15,17.92,17.92,0,0,0,2-.18c.8-.1,1.06.15,1.08,1,0,1.42.1,2.83.18,4.25,0,.6-.25,1-.81.88a.7.7,0,0,1-.61-.73,19.27,19.27,0,0,0-.17-2,2,2,0,0,0-2.1-1.84c-1.14-.08-2.3,0-3.44-.08h-.86v6.62a15.76,15.76,0,0,0,1.82,0,1.92,1.92,0,0,0,1.57-1.75c0-.2,0-.4.05-.6a.5.5,0,0,1,.58-.46c.33,0,.43.23.43.51s0,.78,0,1.16c0,1.47,0,2.91,0,4.37,0,.2,0,.41,0,.61a.41.41,0,0,1-.38.38c-.23,0-.48,0-.56-.28a1.73,1.73,0,0,1-.1-.63A2,2,0,0,0,337,13.56c-.48,0-1,0-1.46,0V21l.15,0h4.4a3.67,3.67,0,0,0,.86-.1,2.11,2.11,0,0,0,1.79-2c.08-.56.1-1.14.13-1.72a.7.7,0,0,1,.78-.76c.45,0,.68.3.66.81-.05,1.47-.13,2.93-.18,4.4,0,.6-.3.88-.91.86-3.66-.31-7.33-.23-11-.23-.81,0-1.64.1-2.45.18-.3,0-.58,0-.73-.31a.89.89,0,0,1,0-.93.68.68,0,0,1,.69-.31c.78,0,1.56,0,2.32.05a1.44,1.44,0,0,0,.36,0" transform="translate(0 -0.62)"/><path class="cls-1" d="M197.35,13.89a15.76,15.76,0,0,0,3.76-.25,2.75,2.75,0,0,0,2-2.18,8.17,8.17,0,0,0,0-3.48,2.6,2.6,0,0,0-1.9-2.05,6.74,6.74,0,0,0-1.54-.28c-.78-.05-1.54,0-2.35,0Zm0,7H200a.8.8,0,0,1,.73,1.19.71.71,0,0,1-.68.35c-1-.08-2-.18-3-.18-1.62,0-3.26.08-4.88.13a5.05,5.05,0,0,0-.68.08.64.64,0,0,1-.74-.71.73.73,0,0,1,.74-.84c.7,0,1.44,0,2.14.05h.56V5.65h-.28c-.76,0-1.54,0-2.3,0-.3,0-.6,0-.76-.35a.9.9,0,0,1,.06-.91c.17-.28.42-.3.73-.28a22.64,22.64,0,0,0,2.32.18c1.47,0,2.91,0,4.37,0a12.63,12.63,0,0,1,4.45.58,5.18,5.18,0,0,1,3.31,2.91A4.92,4.92,0,0,1,203.94,14,8.87,8.87,0,0,1,200,15.05c-.76,0-1.54,0-2.3,0h-.35Z" transform="translate(0 -0.62)"/><path class="cls-1" d="M98.6,5.68V20.91h2.15l.45,0a.74.74,0,0,1,.86.81c0,.5-.33.78-.88.73a43.09,43.09,0,0,0-5.89-.18c-.81,0-1.64.1-2.45.18a.76.76,0,0,1-.79-1.09.74.74,0,0,1,.74-.45c.78,0,1.56,0,2.37.05a.89.89,0,0,0,.28,0V5.6h-.38c-.76,0-1.49,0-2.25.05a2.19,2.19,0,0,0-2.3,2.18c-.07.53-.1,1.08-.12,1.61s-.28.79-.74.79S89,9.9,89,9.39c0-1.46.12-2.93.17-4.4,0-.68.33-1,1-.85a29.52,29.52,0,0,0,3.87.2c2.34,0,4.67,0,7,0,.91,0,1.84-.1,2.75-.18s1.07.15,1.09,1c0,1.39.13,2.78.2,4.17,0,.61-.17.94-.68,1a.73.73,0,0,1-.78-.73c0-.63,0-1.27-.15-1.87a2.08,2.08,0,0,0-2.1-1.95c-.91-.07-1.85,0-2.78,0" transform="translate(0 -0.62)"/><path class="cls-1" d="M244.8,21.07c1.85-.05,3.69,0,5.51-.13a2.06,2.06,0,0,0,2.05-2.05c.07-.55.1-1.13.13-1.72s.3-.78.75-.75.66.3.66.81c-.05,1.51-.13,3-.18,4.54,0,.51-.32.76-.86.71-3.46-.3-6.94-.2-10.43-.23-1.11,0-2.23.1-3.34.18-.3,0-.6,0-.78-.3a.91.91,0,0,1,0-.94.75.75,0,0,1,.74-.3h2.58V5.68h-1.93l-.73,0a.71.71,0,0,1-.78-.78c0-.53.3-.81.83-.76a41.69,41.69,0,0,0,5.81.18c.86,0,1.72-.13,2.58-.18a.67.67,0,0,1,.73.33.83.83,0,0,1,0,.93c-.18.28-.43.28-.71.28-.78,0-1.57,0-2.35,0h-.25V21.07Z" transform="translate(0 -0.62)"/><path class="cls-1" d="M313.84,5.7h-2.58c-.3,0-.61,0-.76-.33a.91.91,0,0,1,.05-.93.64.64,0,0,1,.71-.25c.91.07,1.82.17,2.73.17,1.67,0,3.33-.05,5-.1.2,0,.43,0,.63-.07a.71.71,0,0,1,.84.73.72.72,0,0,1-.79.81c-.65,0-1.33,0-2-.05H317V20.91h2.15l.53,0a.73.73,0,0,1,.78.81.66.66,0,0,1-.83.71,44.33,44.33,0,0,0-7.1-.13c-.43,0-.89.1-1.31.13a.68.68,0,0,1-.84-.71.74.74,0,0,1,.81-.84c.83,0,1.69,0,2.53.05l.12,0V5.7Z" transform="translate(0 -0.62)"/><polygon class="cls-2" points="9.15 0 8.46 10.81 2.68 6.27 7.08 11.88 0 12.73 7.3 13.62 0.13 21.73 8.44 14.38 9.15 25.47 9.8 14.68 16.48 20.09 11.22 13.6 18.27 12.73 10.97 11.85 18.14 3.74 9.83 11.07 9.15 0"/><polygon class="cls-2" points="372.18 0 371.5 11.07 363.19 3.74 370.36 11.85 363.04 12.73 370.11 13.6 364.83 20.09 371.53 14.68 372.18 25.47 372.87 14.38 381.18 21.73 374 13.62 381.33 12.73 374.23 11.88 378.65 6.27 372.84 10.81 372.18 0"/></svg>